<svg width="100.000000" height="100.000000" viewBox="0 0 100 100" fill="none" xmlns="http://www.w3.org/2000/svg" xmlns:xlink="http://www.w3.org/1999/xlink">
	<desc>
			Created with Pixso.
	</desc>
	<defs>
		<clipPath id="clip23_117">
			<rect id="icons8-телеграмма-app" width="100.000000" height="100.000000" fill="white" fill-opacity="0"/>
		</clipPath>
	</defs>
	<g clip-path="url(#clip23_117)">
		<path id="path" d="M88.75 11.97C87.77 12.01 86.83 12.28 85.97 12.62C85.13 12.96 80.25 15.04 73.06 18.12C65.86 21.2 56.51 25.2 47.24 29.17C28.69 37.12 10.47 44.94 10.47 44.94C10.47 44.94 9.5 45.25 8.39 46.03C7.83 46.42 7.23 46.92 6.74 47.65C6.25 48.38 5.89 49.42 6.03 50.51C6.5 54.36 10.49 55.46 10.49 55.46L28.31 61.56C28.77 63.07 33.71 79.58 34.8 83.08C35.4 85.01 35.96 86.12 36.55 86.89C36.84 87.27 37.15 87.56 37.49 87.78C37.63 87.86 37.77 87.93 37.91 87.98C37.97 88.01 38.12 88.06 38.2 88.07C40.24 88.79 41.93 87.46 41.93 87.46L52.94 77.26L70.69 91.1L70.91 91.21C74.02 92.59 76.83 91.82 78.38 90.55C79.94 89.28 80.55 87.65 80.55 87.65L93.66 19.5C93.99 17.98 94.04 16.66 93.73 15.48C93.41 14.29 92.65 13.25 91.69 12.68C90.73 12.11 89.72 11.93 88.75 11.97ZM88.85 16.03C89.25 16.02 89.54 16.06 89.64 16.12C89.73 16.17 89.77 16.16 89.86 16.5C89.95 16.83 90 17.54 89.75 18.64L76.78 86.25C76.75 86.32 76.48 86.95 75.86 87.45C75.23 87.96 74.53 88.36 72.67 87.58L53.26 72.44L52.71 72.01L46.9 67.67L79.52 29.29C80.08 28.63 80.17 27.91 79.8 27.13C79.43 26.35 78.81 25.97 77.94 26C77.56 26.01 77.21 26.12 76.89 26.33L29.68 57.8L11.85 51.69C11.85 51.69 10.08 50.71 10 50.02C10.09 49.89 10.38 49.51 10.67 49.31C11.25 48.91 11.92 48.66 11.92 48.66C11.92 48.66 30.27 40.79 48.82 32.85C58.09 28.88 67.44 24.88 74.63 21.8C81.82 18.73 87.02 16.51 87.46 16.33C87.96 16.13 88.46 16.05 88.85 16.03ZM67.22 37.58L42.48 66.69C42.44 66.74 42.29 66.95 42.25 67.01C42.11 67.25 42.03 67.51 41.99 67.78L38.77 82.29C38.71 82.13 38.68 82.07 38.62 81.89C37.6 78.6 32.93 63.03 32.28 60.87L67.22 37.58ZM45.28 71.46L49.72 74.79L43.19 80.85L45.28 71.46Z" fill="#FFFFFF" fill-opacity="1.000000" fill-rule="nonzero"/>
	</g>
</svg>
